HIERARCHY
ROOT hip
{
  OFFSET 0 0 0
  CHANNELS 6 Xposition Yposition Zposition Zrotation Yrotation Xrotation
  JOINT abdomen
  {
    OFFSET 0 20.6881 -0.73152
    CHANNELS 3 Zrotation Xrotation Yrotation
    JOINT chest
    {
      OFFSET 0 11.7043 -0.48768
      CHANNELS 3 Zrotation Xrotation Yrotation
      JOINT neck
      {
        OFFSET 0 22.1894 -2.19456
        CHANNELS 3 Zrotation Xrotation Yrotation
        JOINT head
        {
          OFFSET -0.24384 7.07133 1.2192
          CHANNELS 3 Zrotation Xrotation Yrotation
          JOINT leftEye
          {
            OFFSET 4.14528 8.04674 8.04672
            CHANNELS 3 Zrotation Xrotation Yrotation
            End Site
            {
              OFFSET 1 0 0
            }
          }
          JOINT rightEye
          {
            OFFSET -3.6576 8.04674 8.04672
            CHANNELS 3 Zrotation Xrotation Yrotation
            End Site
            {
              OFFSET 1 0 0
            }
          }
        }
      }
      JOINT rCollar
      {
        OFFSET -2.68224 19.2634 -4.8768
        CHANNELS 3 Zrotation Xrotation Yrotation
        JOINT rShldr
        {
          OFFSET -8.77824 -1.95073 1.46304
          CHANNELS 3 Zrotation Xrotation Yrotation
          JOINT rForeArm
          {
            OFFSET -28.1742 -1.7115 0.48768
            CHANNELS 3 Zrotation Xrotation Yrotation
            JOINT rHand
            {
              OFFSET -22.5879 0.773209 7.07136
              CHANNELS 3 Zrotation Xrotation Yrotation
              JOINT rThumb1
              {
                OFFSET -1.2192 -0.487915 3.41376
                CHANNELS 3 Zrotation Xrotation Yrotation
                JOINT rThumb2
                {
                  OFFSET -3.37035 -0.52449 3.41376
                  CHANNELS 3 Zrotation Xrotation Yrotation
                  End Site
                  {
                    OFFSET -1.78271 -1.18214 1.43049
                  }
                }
              }
              JOINT rIndex1
              {
                OFFSET -7.75947 0.938293 5.60832
                CHANNELS 3 Zrotation Xrotation Yrotation
                JOINT rIndex2
                {
                  OFFSET -2.54057 -0.884171 1.56538
                  CHANNELS 3 Zrotation Xrotation Yrotation
                  End Site
                  {
                    OFFSET -1.62519 -0.234802 1.16502
                  }
                }
              }
              JOINT rMid1
              {
                OFFSET -8.24714 1.18213 3.41376
                CHANNELS 3 Zrotation Xrotation Yrotation
                JOINT rMid2
                {
                  OFFSET -3.10165 -0.590103 1.0647
                  CHANNELS 3 Zrotation Xrotation Yrotation
                  End Site
                  {
                    OFFSET -2.48547 -0.328903 0.83742
                  }
                }
              }
              JOINT rRing1
              {
                OFFSET -8.82822 0.546677 1.51678
                CHANNELS 3 Zrotation Xrotation Yrotation
                JOINT rRing2
                {
                  OFFSET -2.60934 -0.819778 -0.0198488
                  CHANNELS 3 Zrotation Xrotation Yrotation
                  End Site
                  {
                    OFFSET -2.33842 -0.294052 0.168128
                  }
                }
              }
              JOINT rPinky1
              {
                OFFSET -8.27202 -0.0477905 -0.4584
                CHANNELS 3 Zrotation Xrotation Yrotation
                JOINT rPinky2
                {
                  OFFSET -1.82734 -0.647385 -0.700984
                  CHANNELS 3 Zrotation Xrotation Yrotation
                  End Site
                  {
                    OFFSET -1.69225 -0.51767 -0.607171
                  }
                }
              }
            }
          }
        }
      }
      JOINT lCollar
      {
        OFFSET 2.68224 19.2634 -4.8768
        CHANNELS 3 Zrotation Xrotation Yrotation
        JOINT lShldr
        {
          OFFSET 8.77824 -1.95073 1.46304
          CHANNELS 3 Zrotation Xrotation Yrotation
          JOINT lForeArm
          {
            OFFSET 28.1742 -1.7115 0.48768
            CHANNELS 3 Zrotation Xrotation Yrotation
            JOINT lHand
            {
              OFFSET 22.5879 0.773209 7.07136
              CHANNELS 3 Zrotation Xrotation Yrotation
              JOINT lThumb1
              {
                OFFSET 1.2192 -0.487915 3.41376
                CHANNELS 3 Zrotation Xrotation Yrotation
                JOINT lThumb2
                {
                  OFFSET 3.37035 -0.52449 3.41376
                  CHANNELS 3 Zrotation Xrotation Yrotation
                  End Site
                  {
                    OFFSET 1.78271 -1.18214 1.43049
                  }
                }
              }
              JOINT lIndex1
              {
                OFFSET 7.75947 0.938293 5.60832
                CHANNELS 3 Zrotation Xrotation Yrotation
                JOINT lIndex2
                {
                  OFFSET 2.54057 -0.884171 1.56538
                  CHANNELS 3 Zrotation Xrotation Yrotation
                  End Site
                  {
                    OFFSET 1.62519 -0.234802 1.16502
                  }
                }
              }
              JOINT lMid1
              {
                OFFSET 8.24714 1.18213 3.41376
                CHANNELS 3 Zrotation Xrotation Yrotation
                JOINT lMid2
                {
                  OFFSET 3.10165 -0.590103 1.0647
                  CHANNELS 3 Zrotation Xrotation Yrotation
                  End Site
                  {
                    OFFSET 2.48547 -0.328903 0.83742
                  }
                }
              }
              JOINT lRing1
              {
                OFFSET 8.82822 0.546677 1.51678
                CHANNELS 3 Zrotation Xrotation Yrotation
                JOINT lRing2
                {
                  OFFSET 2.60934 -0.819778 -0.0198488
                  CHANNELS 3 Zrotation Xrotation Yrotation
                  End Site
                  {
                    OFFSET 2.33842 -0.294052 0.168128
                  }
                }
              }
              JOINT lPinky1
              {
                OFFSET 8.27202 -0.0477905 -0.4584
                CHANNELS 3 Zrotation Xrotation Yrotation
                JOINT lPinky2
                {
                  OFFSET 1.82734 -0.647385 -0.700984
                  CHANNELS 3 Zrotation Xrotation Yrotation
                  End Site
                  {
                    OFFSET 1.69225 -0.51767 -0.607171
                  }
                }
              }
            }
          }
        }
      }
    }
  }
  JOINT rButtock
  {
    OFFSET -8.77824 4.35084 1.2192
    CHANNELS 3 Zrotation Xrotation Yrotation
    JOINT rThigh
    {
      OFFSET 0 -1.70687 -2.19456
      CHANNELS 3 Zrotation Xrotation Yrotation
      JOINT rShin
      {
        OFFSET 0 -36.8199 0.73152
        CHANNELS 3 Zrotation Xrotation Yrotation
        JOINT rFoot
        {
          OFFSET 0.73152 -45.1104 -5.12064
          CHANNELS 3 Zrotation Xrotation Yrotation
          End Site
          {
            OFFSET -1.1221 -3.69964 12.103
          }
        }
      }
    }
  }
  JOINT lButtock
  {
    OFFSET 8.77824 4.35084 1.2192
    CHANNELS 3 Zrotation Xrotation Yrotation
    JOINT lThigh
    {
      OFFSET 0 -1.70687 -2.19456
      CHANNELS 3 Zrotation Xrotation Yrotation
      JOINT lShin
      {
        OFFSET 0 -36.8199 0.73152
        CHANNELS 3 Zrotation Xrotation Yrotation
        JOINT lFoot
        {
          OFFSET -0.73152 -45.1104 -5.12064
          CHANNELS 3 Zrotation Xrotation Yrotation
          End Site
          {
            OFFSET 1.1221 -3.69964 12.103
          }
        }
      }
    }
  }
}
MOTION
Frames:	4
Frame Time:	0.03333
-0.03339999856733259 45.107501599585916 -0.11889999977264808 -166.72198486328125 79.35833740234375 -158.21800231933594 -3.310840368270874 13.43239974975586 16.77019691467285 -5.124180316925049 -12.560700416564941 3.9685299396514893 1.0968998670578003 14.931600570678711 12.476699829101562 -0.5893869996070862 -19.434797286987305 24.53219985961914 -0.0 0.0 -0.0 -0.0 0.0 -0.0 -1.5115298877994843e-13 -2.1149300030460366e-13 3.022020025715555e-13 5.59950065612793 63.78499984741211 62.04099655151367 -26.469900131225586 -45.3025016784668 94.08409881591797 -0.1285419911146164 10.169400215148926 1.4445698261260986 1.4896500699634885e-10 1.573789987219243e-08 1.7123199524959887e-09 2.57178001117353e-10 2.7236399802177402e-08 2.9624098729641446e-09 1.4897000299995966e-10 1.573789987219243e-08 1.712309960488767e-09 7.730909824371338 5.474879741668701 0.4173140823841095 1.4896500699634885e-10 1.573789987219243e-08 1.7123199524959887e-09 2.9055399894714355 0.9651829600334167 0.10290199518203735 1.489689899214497e-10 1.573789987219243e-08 1.7123199524959887e-09 10.27859878540039 0.73180091381073 0.025912316516041756 1.4895699951278374e-10 1.573789987219243e-08 1.7123199524959887e-09 2.221669912338257 -0.733487069606781 -0.208919957280159 -1.5100999606592475e-13 -2.115199833861714e-13 3.0205300608800167e-13 -54.22789764404297 -0.7731218934059143 -16.438199996948242 26.962499618530273 -44.1151008605957 -91.673095703125 2.3192200660705566 -39.019691467285156 6.539481163024902 -3.2134097605052148e-09 2.2903199337065416e-09 -1.3032999124362732e-09 -5.50944978527923e-09 3.801070125319939e-09 -2.345829974714775e-09 -3.2134097605052148e-09 2.2903199337065416e-09 -1.3032599444073867e-09 -7.730909824371338 5.474879741668701 -0.4173140823841095 -3.2134097605052148e-09 2.2903199337065416e-09 -1.303290031451354e-09 -2.9055399894714355 0.9651829600334167 -0.10290199518203735 -3.2134197525124364e-09 2.2903199337065416e-09 -1.3032999124362732e-09 -10.27859878540039 0.73180091381073 -0.025912316516041756 -3.2134097605052148e-09 2.2903299257137633e-09 -1.3032999124362732e-09 -2.221669912338257 -0.733487069606781 0.208919957280159 -2.0321699480147914e-16 0.0 -3.8825099822884138e-19 -73.28730010986328 -38.355499267578125 -56.70209884643555 -170.9819793701172 83.62571716308594 173.04998779296875 -1.9506101608276367 -25.721603393554688 -5.150069236755371 2.0321699480147914e-16 0.0 3.8825099822884138e-19 90.87389373779297 -52.974395751953125 70.83480072021484 170.4739990234375 82.91522216796875 -171.13099670410156 -7.270110130310059 -25.33530044555664 -9.712860107421875
-0.07250000010539907 44.73180021410019 -0.2173999987428267 -166.14100646972656 79.33590698242188 -157.49598693847656 -3.2117903232574463 13.413000106811523 16.819400787353516 -5.223079681396484 -12.566800117492676 3.9733898639678955 1.0571401119232178 14.839299201965332 12.518799781799316 -0.4950999319553375 -19.321903228759766 24.63170051574707 -0.0 0.0 -0.0 -0.0 0.0 -0.0 -7.857289715780882e-14 -9.521029797898706e-14 2.0921799178102302e-13 5.618959903717041 63.68629837036133 62.0072021484375 -26.48600196838379 -45.26650619506836 94.00980377197266 -0.1303119957447052 10.236401557922363 1.4542999267578125 2.780719821071642e-10 1.20430998507004e-08 1.2677300320618201e-09 4.790579599678324e-10 2.0821898871759004e-08 2.1912298642234873e-09 2.7807400826418416e-10 1.20430998507004e-08 1.2677200400545985e-09 7.730909824371338 5.474879741668701 0.4173140823841095 2.780719821071642e-10 1.20430998507004e-08 1.2677300320618201e-09 2.9055399894714355 0.9651829600334167 0.10290199518203735 2.780799757129415e-10 1.20430998507004e-08 1.2677300320618201e-09 10.27859878540039 0.73180091381073 0.025912316516041756 2.780700114612955e-10 1.20430998507004e-08 1.2677300320618201e-09 2.221669912338257 -0.733487069606781 -0.208919957280159 -7.846890184067673e-14 -9.522439938349295e-14 2.0899100050368602e-13 -54.21520233154297 -0.6775261163711548 -16.674297332763672 26.970800399780273 -44.0930061340332 -91.62950134277344 2.417059898376465 -39.677799224853516 6.694610118865967 -2.6000299691020246e-09 1.6214399822800374e-09 -1.2240600755220044e-09 -4.45017978023543e-09 2.6617099635473096e-09 -2.1942798689167375e-09 -2.600039961109246e-09 1.6214298792505133e-09 -1.2240399804852586e-09 -7.730909824371338 5.474879741668701 -0.4173140823841095 -2.6000299691020246e-09 1.6214399822800374e-09 -1.2240600755220044e-09 -2.9055399894714355 0.9651829600334167 -0.10290199518203735 -2.600039961109246e-09 1.6214399822800374e-09 -1.2240600755220044e-09 -10.27859878540039 0.73180091381073 -0.025912316516041756 -2.6000299691020246e-09 1.6214399822800374e-09 -1.2240600755220044e-09 -2.221669912338257 -0.733487069606781 0.208919957280159 -2.0321699480147914e-16 0.0 -3.8825099822884138e-19 -74.1874008178711 -38.26410675048828 -57.45509338378906 -171.5349884033203 83.1561050415039 173.60800170898438 -1.7178200483322144 -25.73699951171875 -4.759000301361084 2.0321699480147914e-16 0.0 3.8825099822884138e-19 92.18569946289062 -52.911197662353516 72.02819061279297 171.2480010986328 82.20849609375 -171.9119873046875 -7.272881031036377 -25.46670150756836 -9.630919456481934
-0.08889999967153375 44.375899547018335 -0.31040000122406575 -165.86099243164062 79.3265151977539 -157.04998779296875 -3.0838096141815186 13.397300720214844 16.847497940063477 -5.31389045715332 -12.579501152038574 3.9737398624420166 1.0227099657058716 14.745701789855957 12.568899154663086 -0.4284819960594177 -19.248903274536133 24.741100311279297 -0.0 0.0 -0.0 -0.0 0.0 -0.0 2.384719957853991e-14 -3.578119923833625e-14 9.69074978954005e-15 5.557409763336182 63.60000991821289 62.02760314941406 -26.490697860717773 -45.256004333496094 93.9876937866211 -0.1286810040473938 10.174799919128418 1.4453599452972412 4.45223968803532e-10 -4.239769646474656e-10 -1.6285400805671202e-10 7.642339538982412e-10 -7.74980024598193e-10 -2.8541100038914635e-10 4.4522197040208766e-10 -4.2398701216583845e-10 -1.6287898807476608e-10 7.730909824371338 5.474879741668701 0.4173140823841095 4.4522296960280983e-10 -4.2397901856006115e-10 -1.6286300086321148e-10 2.9055399894714355 0.9651829600334167 0.10290199518203735 4.452349877670514e-10 -4.239749940015969e-10 -1.6286300086321148e-10 10.27859878540039 0.73180091381073 0.025912316516041756 4.452269941612741e-10 -4.239749940015969e-10 -1.6286699766610013e-10 2.221669912338257 -0.733487069606781 -0.208919957280159 2.386269858740877e-14 -3.578119923833625e-14 9.392579792546433e-15 -54.24129867553711 -0.5833030939102173 -16.85649871826172 26.966596603393555 -44.10420608520508 -91.65139770507812 2.552229642868042 -40.53919982910156 6.903609752655029 -7.241650057387972e-10 1.8647600824595045e-11 -6.831929466599718e-10 -1.2250399583635385e-09 -3.084180133505754e-11 -1.2083098965831596e-09 -7.24175996946741e-10 1.863999753159984e-11 -6.831900045689565e-10 -7.730909824371338 5.474879741668701 -0.4173140823841095 -7.241650057387972e-10 1.8646299781988063e-11 -6.831929466599718e-10 -2.9055399894714355 0.9651829600334167 -0.10290199518203735 -7.241739985452966e-10 1.8645397725780555e-11 -6.831919474592496e-10 -10.27859878540039 0.73180091381073 -0.025912316516041756 -7.241609534247573e-10 1.864279911001354e-11 -6.831959997732895e-10 -2.221669912338257 -0.733487069606781 0.208919957280159 -2.0321699480147914e-16 0.0 -3.8825099822884138e-19 -75.0176010131836 -38.17399597167969 -58.16679763793945 -171.9929962158203 82.71292877197266 174.07398986816406 -1.525689959526062 -25.75 -4.436559677124023 2.0321699480147914e-16 0.0 3.8825099822884138e-19 93.4385986328125 -52.87159729003906 73.1259994506836 171.8669891357422 81.53443145751953 -172.54200744628906 -7.253118991851807 -25.55569839477539 -9.522899627685547
-0.11820000043174099 44.03570148483834 -0.3888999990151504 -165.10699462890625 79.28279113769531 -156.22000122070312 -2.95455002784729 13.416901588439941 16.828899383544922 -5.375649452209473 -12.62070083618164 3.9615697860717773 1.0534701347351074 14.691496849060059 12.597198486328125 -0.4737749993801117 -19.2322998046875 24.786399841308594 -0.0 0.0 -0.0 -0.0 0.0 -0.0 -1.1469099273948716e-15 -2.4415601376608087e-13 -6.924539744769878e-14 5.4474897384643555 63.526119232177734 62.073699951171875 -26.486194610595703 -45.26600646972656 94.00849151611328 -0.12277797609567642 9.94437026977539 1.4119298458099365 5.132819724806836e-10 -7.865989637423354e-09 -9.772799236529295e-10 8.784040161913254e-10 -1.364400059600257e-08 -1.6926700041608456e-09 5.132850255940014e-10 -7.865989637423354e-09 -9.772939124630398e-10 7.730909824371338 5.474879741668701 0.4173140823841095 5.132819724806836e-10 -7.86599940738597e-09 -9.772839204558181e-10 2.9055399894714355 0.9651829600334167 0.10290199518203735 5.132930191997787e-10 -7.865989637423354e-09 -9.77287029080287e-10 10.27859878540039 0.73180091381073 0.025912316516041756 5.132829716814058e-10 -7.865989637423354e-09 -9.772849196565403e-10 2.221669912338257 -0.733487069606781 -0.208919957280159 -1.238559951078971e-15 -2.4415999820906475e-13 -6.947519409815708e-14 -54.3589973449707 -0.5024539232254028 -16.89729881286621 26.947399139404297 -44.155303955078125 -91.75279235839844 2.6146202087402344 -40.92500686645508 6.998950481414795 -2.8906300963971177e-11 -3.7894898330392834e-10 -3.409439952584137e-10 -3.594220060465503e-11 -6.802720053933342e-10 -5.971959593509268e-10 -2.890930030086114e-11 -3.7895198090609483e-10 -3.4093700085335854e-10 -7.730909824371338 5.474879741668701 -0.4173140823841095 -2.890620035000957e-11 -3.789479841032062e-10 -3.409409976562472e-10 -2.9055399894714355 0.9651829600334167 -0.10290199518203735 -2.891490172296507e-11 -3.7894898330392834e-10 -3.4094499445913584e-10 -10.27859878540039 0.73180091381073 -0.025912316516041756 -2.890620035000957e-11 -3.7895198090609483e-10 -3.409509619078932e-10 -2.221669912338257 -0.733487069606781 0.208919957280159 -2.0321699480147914e-16 0.0 -3.8825099822884138e-19 -75.7791976928711 -38.090999603271484 -58.7869987487793 -172.37100219726562 82.3043212890625 174.46499633789062 -1.380040168762207 -25.81060028076172 -4.196889877319336 2.0321699480147914e-16 0.0 3.8825099822884138e-19 94.62999725341797 -52.8756103515625 74.14469909667969 172.38299560546875 80.87632751464844 -173.06898498535156 -7.249689102172852 -25.56639862060547 -9.459559440612793
